<svg width="1136" height="327" viewBox="0 0 1136 327" fill="none" xmlns="http://www.w3.org/2000/svg">
<rect width="1136" height="327" fill="white"/>
<rect width="1136" height="327" rx="70" fill="#377C70"/>
<g filter="url(#filter0_i_0_1)">
<path d="M93.688 120.844C115.736 120.844 126.76 131.088 126.76 151.576V182.464C126.76 188.184 128.944 191.824 133.312 193.384C131.752 197.336 128.84 199.312 124.576 199.312C121.456 199.312 118.96 198.22 117.088 196.036C115.32 193.748 114.436 190.784 114.436 187.144C107.884 195.88 99.408 200.248 89.008 200.248C80.584 200.248 73.928 198.116 69.04 193.852C64.256 189.484 61.864 183.66 61.864 176.38C61.864 168.996 64.672 163.016 70.288 158.44C76.008 153.864 83.704 151.576 93.376 151.576C99.2 151.576 104.088 152.2 108.04 153.448C111.264 154.592 113.188 155.32 113.812 155.632V148.768C113.812 142.424 112.2 137.952 108.976 135.352C105.752 132.648 100.864 131.296 94.312 131.296C85.056 131.296 77.88 134.832 72.784 141.904C68.416 141.28 66.232 139.252 66.232 135.82C66.232 131.868 68.936 128.384 74.344 125.368C79.752 122.352 86.2 120.844 93.688 120.844ZM113.812 165.616C107.26 162.704 100.812 161.248 94.468 161.248C88.124 161.248 83.236 162.6 79.804 165.304C76.372 168.008 74.656 171.544 74.656 175.912C74.656 180.176 76.112 183.608 79.024 186.208C82.04 188.704 86.408 189.952 92.128 189.952C97.952 189.952 102.996 187.872 107.26 183.712C111.628 179.552 113.812 174.508 113.812 168.58V165.616ZM208.22 86.524H209.468C213.42 86.524 215.396 88.396 215.396 92.14V193.384C215.396 197.128 213.42 199 209.468 199H208.22C204.268 199 202.292 197.232 202.292 193.696V186.052C200.004 190.108 196.728 193.488 192.464 196.192C188.2 198.792 183.364 200.092 177.956 200.092C168.7 200.092 161.056 196.92 155.024 190.576C148.992 184.232 145.976 174.508 145.976 161.404C145.976 148.196 149.304 138.108 155.96 131.14C162.616 124.068 171.092 120.532 181.388 120.532C189.5 120.532 196.468 122.924 202.292 127.708V92.14C202.292 88.396 204.268 86.524 208.22 86.524ZM202.292 140.5C196.78 134.78 190.176 131.92 182.48 131.92C174.784 131.92 168.908 134.416 164.852 139.408C160.796 144.296 158.768 151.68 158.768 161.56C158.768 171.44 160.848 178.564 165.008 182.932C169.168 187.3 174.68 189.484 181.544 189.484C188.512 189.484 193.712 186.884 197.144 181.684C200.576 176.484 202.292 170.036 202.292 162.34V140.5ZM297.189 86.524H298.437C302.389 86.524 304.365 88.396 304.365 92.14V193.384C304.365 197.128 302.389 199 298.437 199H297.189C293.237 199 291.261 197.232 291.261 193.696V186.052C288.973 190.108 285.697 193.488 281.433 196.192C277.169 198.792 272.333 200.092 266.925 200.092C257.669 200.092 250.025 196.92 243.993 190.576C237.961 184.232 234.945 174.508 234.945 161.404C234.945 148.196 238.273 138.108 244.929 131.14C251.585 124.068 260.061 120.532 270.357 120.532C278.469 120.532 285.437 122.924 291.261 127.708V92.14C291.261 88.396 293.237 86.524 297.189 86.524ZM291.261 140.5C285.749 134.78 279.145 131.92 271.449 131.92C263.753 131.92 257.877 134.416 253.821 139.408C249.765 144.296 247.737 151.68 247.737 161.56C247.737 171.44 249.817 178.564 253.977 182.932C258.137 187.3 263.649 189.484 270.513 189.484C277.481 189.484 282.681 186.884 286.113 181.684C289.545 176.484 291.261 170.036 291.261 162.34V140.5ZM325.318 122.248H328.282C331.61 122.248 333.638 123.86 334.366 127.084C340.71 152.044 347.73 172.22 355.426 187.612H356.83C365.566 166.084 372.586 145.908 377.89 127.084C378.826 123.86 380.854 122.248 383.974 122.248H386.47C389.694 122.248 391.306 123.392 391.306 125.68C391.306 126.304 391.15 127.032 390.838 127.864C378.774 165.512 365.67 199.312 351.526 229.264C350.694 231.032 349.81 232.28 348.874 233.008C348.042 233.84 346.69 234.256 344.818 234.256H340.918C338.422 234.256 337.174 233.06 337.174 230.668C337.174 229.94 337.746 228.432 338.89 226.144C346.586 211.272 351.11 202.172 352.462 198.844H352.15C350.278 198.532 349.082 198.116 348.562 197.596C348.042 196.972 347.678 196.608 347.47 196.504C347.262 196.296 347.002 195.932 346.69 195.412C346.378 194.788 346.17 194.424 346.066 194.32C345.962 194.112 345.702 193.644 345.286 192.916C344.974 192.084 344.766 191.564 344.662 191.356C336.654 175.34 328.75 154.176 320.95 127.864C320.638 127.032 320.482 126.304 320.482 125.68C320.482 123.392 322.094 122.248 325.318 122.248ZM443.935 160.78C443.935 147.78 447.575 137.848 454.855 130.984C462.135 124.12 470.507 120.688 479.971 120.688C489.435 120.688 496.923 123.132 502.435 128.02C507.947 132.804 510.703 138.784 510.703 145.96C510.703 153.136 507.843 158.752 502.123 162.808C496.507 166.76 489.227 168.736 480.283 168.736C471.339 168.736 463.279 167.332 456.103 164.524C456.103 172.116 458.703 178.252 463.903 182.932C469.103 187.508 475.447 189.796 482.935 189.796C494.583 189.796 501.863 186.208 504.775 179.032C506.543 179.032 508.051 179.552 509.299 180.592C510.547 181.528 511.171 182.932 511.171 184.804C511.171 188.444 508.467 191.928 503.059 195.256C497.755 198.584 490.995 200.248 482.779 200.248C471.755 200.248 462.499 196.92 455.011 190.264C447.627 183.608 443.935 173.78 443.935 160.78ZM498.847 145.492C498.847 141.436 497.079 138.004 493.543 135.196C490.111 132.388 485.327 130.984 479.191 130.984C473.159 130.984 467.855 133.428 463.279 138.316C458.703 143.204 456.363 148.716 456.259 154.852C463.747 157.348 471.183 158.596 478.567 158.596C492.087 158.596 498.847 154.228 498.847 145.492ZM530.616 122.092H535.452C538.052 122.092 540.184 123.34 541.848 125.836L559.476 152.824C563.948 147.312 569.928 138.316 577.416 125.836C578.976 123.34 581.004 122.092 583.5 122.092H586.308C589.324 122.092 590.832 123.288 590.832 125.68C590.832 126.512 590.624 127.292 590.208 128.02C584.28 138.108 576.376 148.924 566.496 160.468L590.988 193.072C591.82 194.216 592.236 195.256 592.236 196.192C592.236 198.064 591.144 199 588.96 199H582.876C580.276 199 577.936 197.544 575.856 194.632L558.228 169.204C556.564 170.868 554.64 173.312 552.456 176.536C550.272 179.76 548.66 182.1 547.62 183.556C544.5 188.236 542.004 192.136 540.132 195.256C538.468 197.752 536.336 199 533.736 199H530.928C529.68 199 528.64 198.584 527.808 197.752C526.976 196.92 526.56 196.036 526.56 195.1C526.56 194.06 526.872 193.072 527.496 192.136C534.568 181.736 542.628 171.492 551.676 161.404L527.34 128.02C526.716 127.292 526.404 126.46 526.404 125.524C526.404 124.588 526.768 123.808 527.496 123.184C528.328 122.456 529.368 122.092 530.616 122.092ZM606.638 160.78C606.638 147.78 610.278 137.848 617.558 130.984C624.838 124.12 633.21 120.688 642.674 120.688C652.138 120.688 659.626 123.132 665.138 128.02C670.65 132.804 673.406 138.784 673.406 145.96C673.406 153.136 670.546 158.752 664.826 162.808C659.21 166.76 651.93 168.736 642.986 168.736C634.042 168.736 625.982 167.332 618.806 164.524C618.806 172.116 621.406 178.252 626.606 182.932C631.806 187.508 638.15 189.796 645.638 189.796C657.286 189.796 664.566 186.208 667.478 179.032C669.246 179.032 670.754 179.552 672.002 180.592C673.25 181.528 673.874 182.932 673.874 184.804C673.874 188.444 671.17 191.928 665.762 195.256C660.458 198.584 653.698 200.248 645.482 200.248C634.458 200.248 625.202 196.92 617.714 190.264C610.33 183.608 606.638 173.78 606.638 160.78ZM661.55 145.492C661.55 141.436 659.782 138.004 656.246 135.196C652.814 132.388 648.03 130.984 641.894 130.984C635.862 130.984 630.558 133.428 625.982 138.316C621.406 143.204 619.066 148.716 618.962 154.852C626.45 157.348 633.886 158.596 641.27 158.596C654.79 158.596 661.55 154.228 661.55 145.492ZM699.247 129.58C703.095 126.564 707.203 124.328 711.571 122.872C715.939 121.416 721.243 120.688 727.483 120.688C733.723 120.688 739.183 122.092 743.863 124.9C748.647 127.708 751.039 130.724 751.039 133.948C751.039 137.9 748.803 140.136 744.331 140.656C743.291 138.368 740.951 136.288 737.311 134.416C733.671 132.44 729.355 131.452 724.363 131.452C717.395 131.452 711.623 133.948 707.047 138.94C702.471 143.828 700.183 151.004 700.183 160.468C700.183 169.932 702.523 177.16 707.203 182.152C711.883 187.144 717.499 189.64 724.051 189.64C734.451 189.64 741.471 186.26 745.111 179.5C747.087 179.5 748.751 180.124 750.103 181.372C751.455 182.516 752.131 184.024 752.131 185.896C752.131 189.536 749.635 192.864 744.643 195.88C739.651 198.792 733.931 200.248 727.483 200.248C721.139 200.248 715.731 199.52 711.259 198.064C706.891 196.504 702.835 194.216 699.091 191.2C695.347 188.08 692.383 183.92 690.199 178.72C688.015 173.52 686.923 167.488 686.923 160.624C686.923 153.656 688.015 147.52 690.199 142.216C692.487 136.808 695.503 132.596 699.247 129.58ZM773.053 122.248H774.145C778.097 122.248 780.073 124.172 780.073 128.02V168.112C780.073 182.36 786.365 189.484 798.949 189.484C803.733 189.484 807.737 188.08 810.961 185.272C816.785 180.28 819.697 172.792 819.697 162.808V128.02C819.697 124.172 821.725 122.248 825.781 122.248H826.873C828.953 122.248 830.409 122.716 831.241 123.652C832.177 124.484 832.645 125.94 832.645 128.02V193.228C832.645 195.308 832.177 196.816 831.241 197.752C830.305 198.584 828.797 199 826.717 199H825.781C821.725 199 819.697 197.076 819.697 193.228V185.428C818.241 188.756 815.121 192.084 810.337 195.412C805.657 198.636 800.613 200.248 795.205 200.248C776.485 200.248 767.125 189.796 767.125 168.892V128.02C767.125 124.172 769.101 122.248 773.053 122.248ZM868.774 101.344H869.866C873.818 101.344 875.794 103.268 875.794 107.116V122.56H897.322C901.378 122.56 903.406 124.328 903.406 127.864C903.406 131.4 901.378 133.168 897.322 133.168H875.794V172.48C875.794 179.032 877.042 183.66 879.538 186.364C882.138 188.964 885.882 190.264 890.77 190.264C895.762 190.264 899.454 189.068 901.846 186.676C904.446 187.508 905.746 189.172 905.746 191.668C905.746 194.164 904.03 196.244 900.598 197.908C897.166 199.468 893.058 200.248 888.274 200.248C871.322 200.248 862.846 190.992 862.846 172.48V133.168H855.202C852.914 133.168 851.25 132.804 850.21 132.076C849.17 131.348 848.65 129.944 848.65 127.864C848.65 124.328 850.834 122.56 855.202 122.56H862.846V107.116C862.846 103.268 864.822 101.344 868.774 101.344ZM913.915 160.78C913.915 147.78 917.555 137.848 924.835 130.984C932.115 124.12 940.487 120.688 949.951 120.688C959.415 120.688 966.903 123.132 972.415 128.02C977.927 132.804 980.683 138.784 980.683 145.96C980.683 153.136 977.823 158.752 972.103 162.808C966.487 166.76 959.207 168.736 950.263 168.736C941.319 168.736 933.259 167.332 926.083 164.524C926.083 172.116 928.683 178.252 933.883 182.932C939.083 187.508 945.427 189.796 952.915 189.796C964.563 189.796 971.843 186.208 974.755 179.032C976.523 179.032 978.031 179.552 979.279 180.592C980.527 181.528 981.151 182.932 981.151 184.804C981.151 188.444 978.447 191.928 973.039 195.256C967.735 198.584 960.975 200.248 952.759 200.248C941.735 200.248 932.479 196.92 924.991 190.264C917.607 183.608 913.915 173.78 913.915 160.78ZM968.827 145.492C968.827 141.436 967.059 138.004 963.523 135.196C960.091 132.388 955.307 130.984 949.171 130.984C943.139 130.984 937.835 133.428 933.259 138.316C928.683 143.204 926.343 148.716 926.239 154.852C933.727 157.348 941.163 158.596 948.547 158.596C962.067 158.596 968.827 154.228 968.827 145.492ZM995.916 143.464C995.916 136.392 998.932 130.828 1004.96 126.772C1011.1 122.612 1017.91 120.532 1025.4 120.532C1032.89 120.532 1038.66 121.624 1042.72 123.808C1046.88 125.888 1048.96 128.384 1048.96 131.296C1048.96 134.208 1046.93 136.34 1042.87 137.692C1042.14 136.028 1040.12 134.468 1036.79 133.012C1033.56 131.556 1029.56 130.828 1024.78 130.828C1019.99 130.828 1016.04 131.764 1012.92 133.636C1009.9 135.404 1008.4 137.952 1008.4 141.28C1008.4 144.504 1009.54 147 1011.83 148.768C1014.12 150.536 1019.47 152.408 1027.9 154.384C1036.42 156.256 1042.92 159.012 1047.4 162.652C1051.87 166.292 1054.1 171.388 1054.1 177.94C1054.1 184.492 1051.09 189.848 1045.06 194.008C1039.02 198.064 1031.59 200.092 1022.75 200.092C1014.01 200.092 1006.99 199 1001.69 196.816C996.488 194.528 993.888 191.564 993.888 187.924C993.888 184.284 995.604 181.632 999.036 179.968C1000.49 182.776 1003.3 185.168 1007.46 187.144C1011.62 189.12 1016.82 190.108 1023.06 190.108C1029.3 190.108 1034.03 188.964 1037.26 186.676C1040.58 184.388 1042.25 181.58 1042.25 178.252C1042.25 174.82 1040.74 172.168 1037.72 170.296C1034.81 168.32 1029.04 166.396 1020.41 164.524C1011.88 162.652 1005.64 160 1001.69 156.568C997.84 153.032 995.916 148.664 995.916 143.464Z" fill="#5DFFDF"/>
</g>
<defs>
<filter id="filter0_i_0_1" x="61.864" y="86.524" width="992.24" height="151.732" filterUnits="userSpaceOnUse" color-interpolation-filters="sRGB">
<feFlood flood-opacity="0" result="BackgroundImageFix"/>
<feBlend mode="normal" in="SourceGraphic" in2="BackgroundImageFix" result="shape"/>
<feColorMatrix in="SourceAlpha" type="matrix" values="0 0 0 0 0 0 0 0 0 0 0 0 0 0 0 0 0 0 127 0" result="hardAlpha"/>
<feOffset dy="4"/>
<feGaussianBlur stdDeviation="2"/>
<feComposite in2="hardAlpha" operator="arithmetic" k2="-1" k3="1"/>
<feColorMatrix type="matrix" values="0 0 0 0 0 0 0 0 0 0 0 0 0 0 0 0 0 0 0.25 0"/>
<feBlend mode="normal" in2="shape" result="effect1_innerShadow_0_1"/>
</filter>
</defs>
</svg>
